# xmcd CD database file generated by Grip 3.0.3
# 
# Track frame offsets:
#       150
#       11617
#       20655
#       29375
#       39987
#       50225
#       61110
#       65425
#       77675
#       85195
#       97779
#       113130
#       121215
# 
# Disc length: 1869 seconds
# 
# Revision: 4
# Processed by: cddbd v1.4PL0 Copyright (c) Steve Scherf et al.
# Submitted via: Grip 3.0.3
# 
DISCID=9b074b0d
DTITLE=Moby Grape - Moby Grape
DYEAR=1967
DGENRE=Psychedelic Rock
TTITLE0=Hey Grandma
TTITLE1=Mr Blues
TTITLE2=Fall On You
TTITLE3=8:05
TTITLE4=Come In The Morning
TTITLE5=Omaha
TTITLE6=Naked, If I Want To
TTITLE7=Someday
TTITLE8=Ain't No Use
TTITLE9=Sitting By The Window
TTITLE10=Changes
TTITLE11=Lazy Me
TTITLE12=Indifference
EXTD=YEAR: 1967 ID3G: 78
EXTT0=
EXTT1=
EXTT2=
EXTT3=
EXTT4=
EXTT5=
EXTT6=
EXTT7=
EXTT8=
EXTT9=
EXTT10=
EXTT11=
EXTT12=
PLAYORDER=
